<svg width="180" height="17" viewBox="0 0 180 17" fill="none" xmlns="http://www.w3.org/2000/svg">
<path d="M75.2038 8.5H89.2882V8.62995C89.2882 9.80894 89.0042 10.9706 88.4603 12.0166C87.6493 13.5761 86.3058 14.7928 84.6737 15.4457L83.6761 15.8447C81.8198 16.5872 79.7516 16.601 77.8856 15.8833L77.5647 15.7599C75.6383 15.019 74.1248 13.4838 73.4112 11.5471L73.2696 11.009C72.9359 9.74082 73.8924 8.5 75.2038 8.5Z" fill="white" fill-opacity="0.8"/>
<path d="M75.015 13.9525L86.7222 2.4056L85.6986 1.63788C84.6867 0.878962 83.4998 0.387347 82.2477 0.208469C81.284 0.0707977 80.3027 0.121417 79.3583 0.35752L78.8238 0.491152C78.0003 0.697016 77.2143 1.03099 76.4946 1.48085L76.2596 1.62771C75.4393 2.14043 74.7374 2.8219 74.2008 3.62682L74.0197 3.89852C73.6173 4.50218 73.3252 5.1725 73.1572 5.87827L72.9372 6.80197C72.7208 7.71121 72.6844 8.65405 72.8302 9.57728C73.0014 10.662 73.4199 11.6927 74.0531 12.5899L75.015 13.9525Z" fill="white" fill-opacity="0.8"/>
<path d="M41.3077 16L43.9231 11.2653L47 5.55102L43.9231 0L35 16H41.3077Z" fill="white" fill-opacity="0.8"/>
<path d="M46.4931 16L43.8777 11.2653L40.8008 5.55102L43.8777 0L52.8008 16H46.4931Z" fill="white" fill-opacity="0.8"/>
<rect width="7.69792" height="16" fill="white" fill-opacity="0.8"/>
<path d="M0 0H11.9557C14.2099 0 16.0373 1.82741 16.0373 4.08163V4.08163C16.0373 6.33586 14.2099 8.16326 11.9557 8.16326H0V0Z" fill="white" fill-opacity="0.8"/>
<rect x="17.6094" width="8.01866" height="16.0373" fill="white" fill-opacity="0.8"/>
<rect x="17.6094" y="12.1875" width="15.7166" height="3.84896" fill="white" fill-opacity="0.8"/>
<path d="M90.7734 0H102.641C104.767 0 106.49 1.72324 106.49 3.84896V3.84896C106.49 5.97468 104.767 7.69792 102.641 7.69792H90.7734V0Z" fill="white" fill-opacity="0.8"/>
<path d="M106 16L91 0V16H106Z" fill="white" fill-opacity="0.8"/>
<ellipse cx="117.109" cy="8" rx="8.5" ry="8" fill="white" fill-opacity="0.8"/>
<path d="M127.609 0H134.345V16.3581V16.3581C130.625 16.3581 127.609 13.3424 127.609 9.6224V0Z" fill="white" fill-opacity="0.8"/>
<path d="M143.648 0H136.913V16.3581V16.3581C140.633 16.3581 143.648 13.3424 143.648 9.6224V0Z" fill="white" fill-opacity="0.8"/>
<rect x="134.023" y="8.66016" width="3.20747" height="7.69792" fill="white" fill-opacity="0.8"/>
<rect x="153.469" width="8.01866" height="16.0373" fill="white" fill-opacity="0.8"/>
<path d="M161.326 16.0369L145.609 0.320312V16.0369H161.326Z" fill="white" fill-opacity="0.8"/>
<rect x="163.609" width="8.01866" height="16.0373" fill="white" fill-opacity="0.8"/>
<path d="M163.609 0H171.628C176.057 0 179.647 3.59008 179.647 8.01866V8.01866C179.647 12.4472 176.057 16.0373 171.628 16.0373H163.609V0Z" fill="white" fill-opacity="0.8"/>
<path d="M70.6094 0H54.6094L62.7726 13L70.6094 0Z" fill="white" fill-opacity="0.8"/>
<rect x="59.6094" width="6" height="16" fill="white" fill-opacity="0.8"/>
</svg>
